<svg width="1920" height="1323" viewBox="0 0 1920 1323" fill="none" xmlns="http://www.w3.org/2000/svg">
<g style="mix-blend-mode:darken" filter="url(#filter0_d)">
<path d="M1732.78 191.159L1730.3 195.368L1734.77 198.398L1736.94 194.427L1742.38 198.668L1745.36 193.231L1738.18 187.694L1730.18 182.659L1727.45 187.481L1732.78 191.159Z" fill="#660002"/>
<path d="M1628.73 164.828L1629.14 168.848L1633.33 168.319L1632.84 164.626L1638.2 164.328L1637.53 159.262L1630.49 159.686L1623.16 160.877L1623.7 165.421L1628.73 164.828Z" fill="#660002"/>
<path d="M1733.99 382.794L1729.64 376.865L1723.66 381.084L1727.85 386.432L1719.85 391.239L1725.58 398.584L1736.06 392.218L1746.25 384.433L1741.21 377.796L1733.99 382.794Z" fill="#660002"/>
<path d="M1566.54 196.768L1569.98 201.645L1574.87 198.256L1571.55 193.855L1578.08 190.004L1573.55 183.959L1565 189.059L1556.67 195.32L1560.65 200.781L1566.54 196.768Z" fill="#660002"/>
<path d="M1745.39 361.207L1741.42 356.999L1737.88 361.645L1741.65 365.394L1736.78 370.905L1741.93 376.058L1748.29 368.781L1754.23 360.358L1749.67 355.677L1745.39 361.207Z" fill="#660002"/>
<ellipse cx="1652.9" cy="285.525" rx="121.795" ry="121.795" transform="rotate(-43.8714 1652.9 285.525)" fill="url(#paint0_linear)"/>
<path d="M1527.62 260.559L1534.61 262.486L1536.22 255.228L1529.73 253.66L1532.43 244.619L1523.53 242.449L1520.04 254.345L1517.68 267.197L1525.62 269.245L1527.62 260.559Z" fill="#660002"/>
<path d="M1548.03 218.275L1553.94 222.658L1558.2 216.704L1552.63 212.833L1558.59 205.678L1550.97 200.352L1543.18 209.79L1536.1 220.516L1542.86 225.371L1548.03 218.275Z" fill="#660002"/>
<path d="M1707.56 370.765L1702.83 364.395L1695.94 368.069L1700.5 373.839L1691.3 377.912L1697.53 385.836L1709.58 380.431L1721.35 373.573L1715.88 366.426L1707.56 370.765Z" fill="#660002"/>
<path d="M1643.94 378.008L1643.98 372.283L1637.92 372.542L1638.05 377.816L1630.35 377.611L1630.52 384.843L1640.63 385.065L1651.27 384.236L1651.21 377.758L1643.94 378.008Z" fill="#660002"/>
<path d="M1617.05 356.941L1619.03 350.122L1611.48 348.33L1609.87 354.673L1600.46 351.76L1598.22 360.453L1610.6 364.224L1623.98 366.919L1626.09 359.163L1617.05 356.941Z" fill="#660002"/>
<path d="M1590.78 204.691L1591.73 208.362L1587.83 208.827L1587.06 205.427L1582.19 206.36L1581.13 201.699L1587.54 200.503L1594.45 199.928L1595.45 204.094L1590.78 204.691Z" fill="#660002"/>
<path d="M1579.4 317.336L1586.2 315.369L1582.53 308.373L1576.36 310.39L1572.34 301.32L1563.87 304.066L1569.22 315.969L1576.09 328.105L1583.73 325.748L1579.4 317.336Z" fill="#660002"/>
<path d="M1602.45 171.397L1605.82 177.907L1612.47 174.774L1609.17 168.859L1617.93 165.486L1613.43 157.365L1601.95 161.851L1590.51 167.771L1594.44 175.086L1602.45 171.397Z" fill="#660002"/>
<path d="M1654.03 159.108L1654.21 166.269L1661.73 166.544L1661.35 159.929L1670.92 160.945L1670.42 151.875L1657.84 150.6L1644.67 150.589L1645.01 158.704L1654.03 159.108Z" fill="#660002"/>
<path d="M1702.01 169.479L1700.05 176.245L1707.29 178.746L1708.88 172.432L1717.89 176.239L1720.09 167.588L1708.24 162.641L1695.43 158.7L1693.35 166.409L1702.01 169.479Z" fill="#660002"/>
<path d="M1757.46 212.891L1751.62 216.686L1755.96 223.093L1761.22 219.407L1766.18 227.9L1773.4 222.864L1766.82 211.735L1758.84 200.751L1752.31 205.166L1757.46 212.891Z" fill="#660002"/>
<path d="M1774.91 265.985L1767.83 266.614L1768.92 274.128L1775.41 273.33L1776.12 282.934L1785.03 281.863L1784.03 269.248L1781.67 256.115L1773.69 256.965L1774.91 265.985Z" fill="#660002"/>
<path d="M1749.48 246.545L1743.18 247.385L1743.85 254.092L1749.65 253.124L1749.92 261.723L1757.87 260.413L1757.46 249.121L1755.87 237.416L1748.74 238.491L1749.48 246.545Z" fill="#660002"/>
<path d="M1688.65 187.009L1684.1 192.72L1691.49 196.46L1695.48 191.084L1704.44 196.367L1709.93 189.005L1698.11 182.109L1684.85 175.926L1679.84 182.463L1688.65 187.009Z" fill="#660002"/>
<path d="M1712.63 224.339L1707.2 226.473L1709.78 232.345L1714.72 230.207L1717.48 237.867L1724.26 234.951L1720.57 224.905L1715.7 214.748L1709.6 217.273L1712.63 224.339Z" fill="#660002"/>
<path d="M1725.98 335.064L1722.02 330.855L1718.48 335.502L1722.24 339.25L1717.38 344.761L1722.52 349.914L1728.88 342.638L1734.82 334.215L1730.27 329.534L1725.98 335.064Z" fill="#660002"/>
<path d="M1745.09 290.213L1735.49 290.866L1736.13 301.003L1744.96 300.108L1744.87 313.047L1756.98 311.849L1757.02 294.852L1755.28 277.121L1744.43 278.046L1745.09 290.213Z" fill="#660002"/>
<path d="M1713.72 264.496L1707.18 264.964L1707.59 271.868L1713.61 271.237L1713.52 280.051L1721.77 279.206L1721.83 267.628L1720.69 255.554L1713.3 256.211L1713.72 264.496Z" fill="#660002"/>
<path d="M1676.35 224.902L1673.32 230.578L1679.19 234.519L1681.82 229.169L1689.01 234.704L1692.63 227.379L1683.16 220.152L1672.66 213.615L1669.33 220.116L1676.35 224.902Z" fill="#660002"/>
<path d="M1619.29 319.992L1625.88 318.26L1623.37 311.237L1617.36 313.038L1614.78 303.955L1606.53 306.403L1609.98 318.324L1614.83 330.524L1622.24 328.434L1619.29 319.992Z" fill="#660002"/>
<path d="M1627.29 250.811L1629.1 257.259L1635.84 256.239L1633.97 250.32L1642.71 249.624L1640.17 241.505L1628.71 242.472L1617.02 244.684L1619.19 251.967L1627.29 250.811Z" fill="#660002"/>
<path d="M1626.52 207.069L1630.63 216.543L1640.78 214.702L1636.69 206.015L1649.97 204.559L1644.39 192.641L1626.99 194.632L1609.47 198.482L1614.31 209.178L1626.52 207.069Z" fill="#660002"/>
<path d="M1595.95 276.105L1602.8 279.571L1606.63 272.985L1600.21 269.977L1605.73 261.934L1596.93 257.79L1589.74 268.388L1583.46 280.163L1591.28 283.968L1595.95 276.105Z" fill="#660002"/>
<path d="M1670.24 347.443L1668.01 340.15L1660.36 341.322L1662.64 348.015L1652.72 348.824L1655.81 358.007L1668.83 356.884L1682.09 354.352L1679.43 346.114L1670.24 347.443Z" fill="#660002"/>
<path d="M1704.25 314.254L1698.08 309.216L1693.28 315.547L1699.11 320.013L1692.45 327.586L1700.43 333.727L1709.14 323.734L1717.14 312.303L1710.06 306.713L1704.25 314.254Z" fill="#660002"/>
<path d="M1634.52 181.901L1635.14 187.942L1641.44 187.153L1640.68 181.603L1648.74 181.163L1647.72 173.549L1637.14 174.176L1626.13 175.956L1626.96 182.784L1634.52 181.901Z" fill="#660002"/>
<path d="M1567.83 240.42L1572.83 244.964L1576.09 238.881L1571.38 234.863L1575.99 227.558L1569.54 222.032L1563.53 231.669L1558.14 242.634L1563.87 247.669L1567.83 240.42Z" fill="#660002"/>
<path d="M1769.2 328.931L1762.31 326.622L1760.29 333.754L1766.71 335.678L1763.5 344.524L1772.29 347.183L1776.45 335.541L1779.54 322.884L1771.7 320.4L1769.2 328.931Z" fill="#660002"/>
<path d="M1672.65 409.425L1671.09 402.353L1663.74 403.542L1665.39 410.033L1655.91 410.885L1658.16 419.789L1670.6 418.61L1683.38 416.06L1681.48 408.072L1672.65 409.425Z" fill="#660002"/>
<path d="M1625.25 410.848L1626.38 403.853L1618.95 402.202L1618.12 408.703L1608.8 405.954L1607.63 414.864L1619.9 418.419L1632.99 420.855L1634.14 412.902L1625.25 410.848Z" fill="#660002"/>
<path d="M1578.56 387.806L1582.12 381.812L1575.6 377.664L1572.51 383.314L1564.56 377.486L1560.3 385.222L1570.77 392.83L1582.43 399.71L1586.34 392.845L1578.56 387.806Z" fill="#660002"/>
<path d="M1544.16 350.639L1550.46 347.629L1546.92 340.777L1541.21 343.753L1537.3 334.768L1529.46 338.829L1534.65 350.61L1541.27 362.425L1548.34 358.889L1544.16 350.639Z" fill="#660002"/>
<path d="M1581.97 357.98L1587.24 353.46L1582.18 347.597L1577.46 351.936L1571.52 344.066L1565.03 350L1572.89 360.304L1582.12 370.288L1588 365.061L1581.97 357.98Z" fill="#660002"/>
<path d="M1529.61 309.889L1536.7 309.392L1535.76 301.868L1529.25 302.543L1528.71 292.938L1519.78 293.843L1520.54 306.46L1522.66 319.62L1530.67 318.919L1529.61 309.889Z" fill="#660002"/>
<path d="M1549.64 283.763L1556.73 283.266L1555.78 275.742L1549.27 276.417L1548.73 266.812L1539.8 267.717L1540.56 280.334L1542.68 293.494L1550.69 292.794L1549.64 283.763Z" fill="#660002"/>
</g>
<g style="mix-blend-mode:darken" filter="url(#filter1_d)">
<path d="M1440.01 163.969L1438.61 166.289L1441.03 167.905L1442.25 165.717L1445.19 167.985L1446.87 164.99L1442.99 162.028L1438.66 159.348L1437.12 162.007L1440.01 163.969Z" fill="#660002"/>
<path d="M1383.34 150.5L1383.52 152.692L1385.82 152.366L1385.58 150.353L1388.51 150.143L1388.19 147.382L1384.34 147.675L1380.32 148.39L1380.58 150.867L1383.34 150.5Z" fill="#660002"/>
<path d="M1438.99 268.632L1436.66 265.432L1433.35 267.788L1435.6 270.673L1431.18 273.368L1434.25 277.33L1440.03 273.761L1445.68 269.419L1442.98 265.838L1438.99 268.632Z" fill="#660002"/>
<path d="M1349.04 168.491L1350.88 171.125L1353.58 169.231L1351.81 166.856L1355.41 164.696L1352.99 161.434L1348.27 164.294L1343.65 167.787L1345.78 170.735L1349.04 168.491Z" fill="#660002"/>
<path d="M1445.41 256.74L1443.28 254.477L1441.3 257.046L1443.33 259.06L1440.62 262.113L1443.39 264.882L1446.93 260.852L1450.25 256.199L1447.8 253.682L1445.41 256.74Z" fill="#660002"/>
<ellipse cx="1395.49" cy="216.213" rx="67.6383" ry="65.4982" transform="rotate(-43.8714 1395.49 216.213)" fill="url(#paint1_linear)"/>
<path d="M1327.2 203.677L1331 204.668L1331.95 200.689L1328.41 199.89L1329.97 194.928L1325.12 193.821L1323.11 200.349L1321.7 207.39L1326.02 208.439L1327.2 203.677Z" fill="#660002"/>
<path d="M1338.73 180.402L1341.92 182.744L1344.3 179.454L1341.29 177.389L1344.61 173.428L1340.49 170.586L1336.15 175.809L1332.18 181.73L1335.84 184.323L1338.73 180.402Z" fill="#660002"/>
<path d="M1424.64 262.293L1422.11 258.856L1418.31 260.923L1420.75 264.035L1415.68 266.34L1419.02 270.613L1425.66 267.555L1432.16 263.706L1429.22 259.85L1424.64 262.293Z" fill="#660002"/>
<path d="M1389.78 266.808L1389.85 263.681L1386.54 263.875L1386.56 266.755L1382.35 266.711L1382.38 270.66L1387.91 270.692L1393.73 270.146L1393.76 266.608L1389.78 266.808Z" fill="#660002"/>
<path d="M1375.26 255.537L1376.4 251.795L1372.29 250.882L1371.35 254.361L1366.23 252.853L1364.93 257.621L1371.67 259.572L1378.96 260.926L1380.18 256.671L1375.26 255.537Z" fill="#660002"/>
<path d="M1362.23 172.606L1362.72 174.603L1360.58 174.891L1360.19 173.041L1357.51 173.593L1356.97 171.057L1360.49 170.347L1364.27 169.972L1364.79 172.239L1362.23 172.606Z" fill="#660002"/>
<path d="M1355.01 234.235L1358.75 233.101L1356.8 229.312L1353.41 230.468L1351.29 225.549L1346.64 227.123L1349.46 233.577L1353.11 240.146L1357.31 238.792L1355.01 234.235Z" fill="#660002"/>
<path d="M1368.9 154.318L1370.69 157.844L1374.35 156.075L1372.6 152.873L1377.42 150.954L1375.03 146.558L1368.71 149.109L1362.41 152.442L1364.49 156.404L1368.9 154.318Z" fill="#660002"/>
<path d="M1397.22 147.153L1397.26 151.063L1401.37 151.147L1401.22 147.537L1406.44 148.008L1406.25 143.058L1399.38 142.472L1392.17 142.582L1392.29 147.012L1397.22 147.153Z" fill="#660002"/>
<path d="M1423.37 152.397L1422.24 156.109L1426.17 157.412L1427.1 153.949L1431.99 155.95L1433.27 151.205L1426.84 148.607L1419.87 146.567L1418.66 150.795L1423.37 152.397Z" fill="#660002"/>
<path d="M1453.31 175.622L1450.09 177.746L1452.41 181.208L1455.31 179.148L1457.95 183.743L1461.94 180.929L1458.45 174.908L1454.17 168.978L1450.57 171.448L1453.31 175.622Z" fill="#660002"/>
<path d="M1462.39 204.47L1458.52 204.875L1459.04 208.97L1462.6 208.477L1462.91 213.717L1467.79 213.053L1467.35 206.172L1466.18 199.019L1461.8 199.554L1462.39 204.47Z" fill="#660002"/>
<path d="M1448.66 194.074L1445.2 194.588L1445.51 198.246L1448.69 197.666L1448.76 202.361L1453.12 201.576L1453 195.411L1452.23 189.032L1448.32 189.681L1448.66 194.074Z" fill="#660002"/>
<path d="M1415.91 162.089L1413.37 165.249L1417.38 167.227L1419.61 164.255L1424.46 167.062L1427.53 162.992L1421.13 159.33L1413.93 156.069L1411.13 159.683L1415.91 162.089Z" fill="#660002"/>
<path d="M1428.7 182.269L1425.71 183.482L1427.07 186.667L1429.78 185.456L1431.23 189.615L1434.96 187.963L1433.04 182.508L1430.46 177.003L1427.1 178.436L1428.7 182.269Z" fill="#660002"/>
<path d="M1435.03 242.631L1432.89 240.367L1430.92 242.936L1432.94 244.951L1430.23 248.003L1433 250.773L1436.55 246.743L1439.87 242.09L1437.42 239.573L1435.03 242.631Z" fill="#660002"/>
<path d="M1445.87 217.965L1440.62 218.406L1440.87 223.938L1445.71 223.371L1445.55 230.44L1452.18 229.679L1452.35 220.394L1451.56 210.724L1445.62 211.325L1445.87 217.965Z" fill="#660002"/>
<path d="M1428.94 204.194L1425.36 204.506L1425.52 208.274L1428.82 207.877L1428.69 212.692L1433.21 212.157L1433.35 205.833L1432.83 199.248L1428.78 199.672L1428.94 204.194Z" fill="#660002"/>
<path d="M1408.85 182.895L1407.14 186.022L1410.32 188.123L1411.8 185.177L1415.68 188.138L1417.73 184.105L1412.62 180.241L1406.93 176.762L1405.05 180.342L1408.85 182.895Z" fill="#660002"/>
<path d="M1376.81 235.335L1380.43 234.332L1379.11 230.518L1375.81 231.554L1374.48 226.615L1369.95 228.025L1371.73 234.506L1374.27 241.127L1378.35 239.92L1376.81 235.335Z" fill="#660002"/>
<path d="M1381.79 197.477L1382.72 200.983L1386.42 200.367L1385.45 197.15L1390.23 196.694L1388.92 192.281L1382.64 192.91L1376.22 194.221L1377.35 198.18L1381.79 197.477Z" fill="#660002"/>
<path d="M1381.75 173.591L1383.92 178.73L1389.48 177.635L1387.33 172.926L1394.6 172.014L1391.66 165.554L1382.12 166.794L1372.5 169.051L1375.06 174.85L1381.75 173.591Z" fill="#660002"/>
<path d="M1364.43 211.568L1368.14 213.402L1370.3 209.771L1366.81 208.184L1369.9 203.742L1365.13 201.556L1361.1 207.408L1357.56 213.895L1361.8 215.904L1364.43 211.568Z" fill="#660002"/>
<path d="M1404.43 249.882L1403.28 245.918L1399.08 246.625L1400.27 250.262L1394.84 250.79L1396.45 255.779L1403.58 255.051L1410.85 253.552L1409.47 249.076L1404.43 249.882Z" fill="#660002"/>
<path d="M1423.32 231.455L1419.99 228.757L1417.31 232.258L1420.46 234.646L1416.75 238.841L1421.06 242.125L1425.91 236.59L1430.39 230.276L1426.57 227.285L1423.32 231.455Z" fill="#660002"/>
<path d="M1386.35 159.774L1386.64 163.069L1390.09 162.582L1389.72 159.557L1394.13 159.246L1393.64 155.096L1387.85 155.532L1381.82 156.6L1382.21 160.323L1386.35 159.774Z" fill="#660002"/>
<path d="M1349.36 192.323L1352.06 194.762L1353.89 191.41L1351.35 189.257L1353.94 185.227L1350.46 182.265L1347.09 187.581L1344.05 193.618L1347.13 196.318L1349.36 192.323Z" fill="#660002"/>
<path d="M1458.72 238.902L1454.97 237.701L1453.8 241.614L1457.29 242.609L1455.46 247.469L1460.25 248.844L1462.62 242.449L1464.43 235.508L1460.16 234.22L1458.72 238.902Z" fill="#660002"/>
<path d="M1405.2 283.717L1404.41 279.867L1400.39 280.582L1401.23 284.112L1396.04 284.661L1397.19 289.505L1404 288.752L1411.01 287.247L1410.04 282.9L1405.2 283.717Z" fill="#660002"/>
<path d="M1379.27 284.91L1379.95 281.079L1375.9 280.242L1375.39 283.801L1370.31 282.381L1369.6 287.258L1376.28 289.092L1383.42 290.308L1384.11 285.954L1379.27 284.91Z" fill="#660002"/>
<path d="M1353.94 272.734L1355.94 269.429L1352.41 267.22L1350.67 270.334L1346.37 267.22L1343.97 271.483L1349.63 275.547L1355.95 279.202L1358.15 275.418L1353.94 272.734Z" fill="#660002"/>
<path d="M1335.45 252.735L1338.92 251.035L1337.05 247.324L1333.9 248.999L1331.84 244.126L1327.52 246.413L1330.25 252.802L1333.77 259.198L1337.66 257.204L1335.45 252.735Z" fill="#660002"/>
<path d="M1356.07 256.413L1358.99 253.898L1356.27 250.739L1353.65 253.151L1350.47 248.904L1346.87 252.202L1351.08 257.762L1356.04 263.134L1359.3 260.228L1356.07 256.413Z" fill="#660002"/>
<path d="M1327.85 230.604L1331.73 230.271L1331.28 226.169L1327.72 226.595L1327.51 221.353L1322.61 221.926L1322.92 228.811L1323.96 235.98L1328.35 235.527L1327.85 230.604Z" fill="#660002"/>
<path d="M1339.03 216.158L1342.91 215.824L1342.46 211.723L1338.9 212.149L1338.69 206.907L1333.79 207.48L1334.1 214.365L1335.14 221.534L1339.53 221.081L1339.03 216.158Z" fill="#660002"/>
</g>
<g style="mix-blend-mode:darken" filter="url(#filter2_d)">
<path d="M1671.31 65.1852L1668.26 60.9115L1663.62 64.2875L1666.57 68.1329L1660.38 72.0234L1664.41 77.306L1672.52 72.1583L1680.46 65.9588L1676.92 61.1806L1671.31 65.1852Z" fill="#660002"/>
<path d="M1680.67 48.6183L1677.84 45.6169L1675.02 49.2231L1677.7 51.888L1673.85 56.1894L1677.52 59.8539L1682.57 54.1768L1687.34 47.6572L1684.09 44.3243L1680.67 48.6183Z" fill="#660002"/>
<ellipse cx="1614.01" cy="-4.57808" rx="95.7735" ry="86.7797" transform="rotate(-43.8714 1614.01 -4.57808)" fill="url(#paint2_linear)"/>
<path d="M1651.91 57.1634L1648.6 52.5732L1643.28 55.5751L1646.49 59.7232L1639.44 63.109L1643.82 68.8057L1653.07 64.3187L1662.16 58.7543L1658.31 53.6108L1651.91 57.1634Z" fill="#660002"/>
<path d="M1603.87 64.9279L1604.12 60.6444L1599.55 61.0616L1599.46 65.0014L1593.69 65.1322L1593.54 70.5359L1601.13 70.3286L1609.14 69.3161L1609.34 64.4725L1603.87 64.9279Z" fill="#660002"/>
<path d="M1584.46 50.1627L1586.2 44.9889L1580.59 43.9268L1579.15 48.7308L1572.19 46.8996L1570.19 53.484L1579.35 55.8475L1589.29 57.37L1591.16 51.4909L1584.46 50.1627Z" fill="#660002"/>
<path d="M1557.65 21.9282L1562.82 20.2056L1560.33 15.1083L1555.62 16.8447L1552.93 10.2089L1546.48 12.5754L1550.05 21.2809L1554.77 30.1048L1560.59 28.0603L1557.65 21.9282Z" fill="#660002"/>
<path d="M1667.06 29.7796L1664.24 26.7782L1661.41 30.3844L1664.1 33.0492L1660.24 37.3507L1663.92 41.0152L1668.96 35.3381L1673.73 28.8185L1670.48 25.4855L1667.06 29.7796Z" fill="#660002"/>
<path d="M1683.06 -4.47243L1675.83 -3.63026L1675.93 3.92909L1682.6 2.93388L1682.05 12.6153L1691.19 11.2721L1691.85 -1.44281L1691.2 -14.6412L1683.01 -13.5485L1683.06 -4.47243Z" fill="#660002"/>
<path d="M1587.51 22.4426L1592.52 20.9044L1590.89 15.7441L1586.31 17.3123L1584.71 10.6137L1578.42 12.7493L1580.57 21.5388L1583.76 30.4852L1589.41 28.6483L1587.51 22.4426Z" fill="#660002"/>
<path d="M1624.74 41.0955L1623.34 35.7231L1617.56 36.8813L1619.02 41.8043L1611.54 42.775L1613.53 49.5291L1623.34 48.2091L1633.39 45.8259L1631.7 39.7627L1624.74 41.0955Z" fill="#660002"/>
<path d="M1651.51 15.0165L1647.06 11.4756L1643.23 16.3882L1647.44 19.5131L1642.16 25.4238L1647.92 29.7229L1654.83 21.9267L1661.26 13.0812L1656.15 9.16115L1651.51 15.0165Z" fill="#660002"/>
<path d="M1699.74 23.5978L1694.65 22.1248L1692.87 27.5343L1697.62 28.737L1694.88 35.4717L1701.38 37.1364L1704.94 28.2745L1707.73 18.6935L1701.93 17.1247L1699.74 23.5978Z" fill="#660002"/>
<path d="M1624.27 87.3681L1623.36 82.1356L1617.8 83.2965L1618.8 88.0904L1611.65 89.0776L1613 95.6545L1622.39 94.314L1632.08 91.9352L1630.95 86.0305L1624.27 87.3681Z" fill="#660002"/>
<path d="M1588.62 90.1814L1589.73 84.9072L1584.22 83.9461L1583.35 88.8396L1576.45 87.1273L1575.25 93.8349L1584.33 96.0415L1594.07 97.3806L1595.23 91.3896L1588.62 90.1814Z" fill="#660002"/>
<path d="M1554.42 74.6689L1557.31 70.0541L1552.57 67.192L1550.04 71.5321L1544.29 67.4662L1540.8 73.4096L1548.38 78.7142L1556.88 83.4295L1560.07 78.1504L1554.42 74.6689Z" fill="#660002"/>
<path d="M1529.96 48.138L1534.8 45.6536L1532.4 40.6595L1528 43.0957L1525.39 36.52L1519.36 39.8466L1522.82 48.4668L1527.36 57.0599L1532.79 54.1544L1529.96 48.138Z" fill="#660002"/>
<path d="M1558.08 52.234L1562.21 48.6585L1558.62 44.4595L1554.92 47.8794L1550.74 42.2121L1545.65 46.8897L1551.17 54.3073L1557.74 61.4346L1562.34 57.3081L1558.08 52.234Z" fill="#660002"/>
<path d="M1520.54 18.1943L1525.88 17.5613L1525.45 11.9679L1520.53 12.7134L1520.49 5.54892L1513.74 6.55521L1513.85 15.9644L1514.96 25.7296L1521 24.91L1520.54 18.1943Z" fill="#660002"/>
<path d="M1536.54 -2.08594L1541.88 -2.71891L1541.45 -8.31227L1536.53 -7.56683L1536.49 -14.7313L1529.74 -13.725L1529.85 -4.31577L1530.96 5.44943L1537 4.6298L1536.54 -2.08594Z" fill="#660002"/>
</g>
<path d="M-131 542.5C418.319 701 1583.67 711.5 1935 236V1045C1121.25 948.218 668.945 1011.91 -131 1323V542.5Z" fill="#E00004"/>
<path d="M-71 454C461.95 612.5 1531.5 758 1933.96 303L1935 1022.5C1163.31 960.359 723.704 1008.11 -69.956 1230L-71 454Z" fill="#A30003"/>
<path d="M236.29 302.7C205.35 302.7 189.88 292.727 189.88 272.78V220.42C189.88 199.34 205.35 188.8 236.29 188.8C246.83 188.8 256.917 189.877 266.55 192.03V204.27C255.67 201.55 245.697 200.19 236.63 200.19C232.21 200.19 228.357 200.473 225.07 201.04C221.783 201.493 218.61 202.343 215.55 203.59C208.977 206.423 205.69 211.977 205.69 220.25V271.93C205.69 284.623 216.23 290.97 237.31 290.97C246.377 290.97 256.35 289.61 267.23 286.89V299.47C257.597 301.623 247.283 302.7 236.29 302.7ZM323.067 302.7C315.814 302.7 310.374 302.417 306.747 301.85C303.12 301.397 299.494 300.32 295.867 298.62C292.127 296.92 289.407 294.2 287.707 290.46C286.007 286.607 285.157 281.45 285.157 274.99V246.43C285.157 241.33 285.78 236.853 287.027 233C288.274 229.147 289.917 226.143 291.957 223.99C293.657 222.063 296.207 220.59 299.607 219.57C303.12 218.437 306.69 217.7 310.317 217.36C314.397 217.133 318.647 217.02 323.067 217.02C328.96 217.02 333.38 217.19 336.327 217.53C339.387 217.757 342.617 218.323 346.017 219.23C349.53 220.25 352.25 221.78 354.177 223.82C356.104 225.86 357.747 228.807 359.107 232.66C360.354 236.627 360.977 241.217 360.977 246.43V274.99C360.977 284.623 358.767 291.65 354.347 296.07C352.534 297.883 349.927 299.3 346.527 300.32C343.127 301.34 339.614 302.02 335.987 302.36C331.68 302.587 327.374 302.7 323.067 302.7ZM323.067 292.67C327.827 292.67 331.284 292.557 333.437 292.33C335.59 292.103 337.687 291.48 339.727 290.46C341.767 289.553 343.184 288.08 343.977 286.04C344.884 283.887 345.337 280.94 345.337 277.2V243.88C345.337 238.78 344.714 235.097 343.467 232.83C342.22 230.45 340.067 228.92 337.007 228.24C334.06 227.447 329.414 227.05 323.067 227.05C316.72 227.05 312.017 227.447 308.957 228.24C306.01 228.92 303.914 230.45 302.667 232.83C301.42 235.097 300.797 238.78 300.797 243.88V277.2C300.797 280.94 301.194 283.887 301.987 286.04C302.894 288.08 304.367 289.553 306.407 290.46C308.447 291.48 310.544 292.103 312.697 292.33C314.85 292.557 318.307 292.67 323.067 292.67ZM372.598 218.72H388.748L411.528 287.74H412.378L434.478 218.72H449.268L420.538 301H402.178L372.598 218.72ZM463.53 188.97H478.83V204.95H463.53V188.97ZM463.53 218.72H478.83V301H463.53V218.72ZM534.775 302.7C526.615 302.7 520.212 301.907 515.565 300.32C510.919 298.62 507.519 295.9 505.365 292.16C503.325 288.42 502.305 283.207 502.305 276.52V240.31C502.305 232.037 504.855 226.087 509.955 222.46C515.169 218.833 523.725 217.02 535.625 217.02C542.765 217.02 548.885 217.927 553.985 219.74C559.199 221.553 561.862 224.16 561.975 227.56H562.315L561.975 206.65V182H577.275V301H562.315V291.31C562.315 294.37 559.879 296.977 555.005 299.13C550.132 301.51 543.389 302.7 534.775 302.7ZM538.005 292.16C546.505 292.16 552.625 291.197 556.365 289.27C560.105 287.343 561.975 284.057 561.975 279.41V238.78C561.975 231.413 554.439 227.73 539.365 227.73C530.299 227.73 524.405 228.41 521.685 229.77C518.852 231.13 517.435 234.133 517.435 238.78V279.41C517.435 284.057 518.965 287.343 522.025 289.27C525.199 291.197 530.525 292.16 538.005 292.16ZM596.025 246.26H643.285V258.5H596.025V246.26ZM704.382 205.97L670.892 227.9V213.96L704.552 190.67H719.172V301H704.382V205.97ZM794.836 302.7C785.656 302.7 776.079 302.077 766.106 300.83V289.44C776.986 291.367 786.392 292.33 794.326 292.33C801.012 292.33 806.169 291.707 809.796 290.46C813.536 289.1 816.199 286.833 817.786 283.66C819.372 280.487 820.166 276.067 820.166 270.4V255.95H795.176C789.509 255.95 785.259 255.837 782.426 255.61C779.592 255.383 776.589 254.93 773.416 254.25C770.242 253.57 767.862 252.437 766.276 250.85C764.802 249.263 763.499 246.997 762.366 244.05C761.346 241.103 760.836 237.533 760.836 233.34V217.02C760.836 204.78 764.689 196.847 772.396 193.22C776.136 191.52 779.876 190.387 783.616 189.82C787.356 189.14 792.229 188.8 798.236 188.8C803.222 188.8 807.246 188.97 810.306 189.31C813.366 189.537 816.539 190.16 819.826 191.18C823.339 192.313 826.116 193.9 828.156 195.94C830.196 197.867 831.896 200.587 833.256 204.1C834.616 207.613 835.296 211.92 835.296 217.02V272.78C835.296 283.547 832.122 291.253 825.776 295.9C819.429 300.433 809.116 302.7 794.836 302.7ZM820.166 246.09V216.17C820.166 211.183 819.486 207.5 818.126 205.12C816.766 202.627 814.556 200.983 811.496 200.19C808.436 199.283 803.902 198.83 797.896 198.83C791.889 198.83 787.356 199.283 784.296 200.19C781.349 200.983 779.196 202.627 777.836 205.12C776.589 207.5 775.966 211.183 775.966 216.17V232.83C775.966 236.57 776.532 239.403 777.666 241.33C778.799 243.143 780.896 244.39 783.956 245.07C787.016 245.75 791.719 246.09 798.066 246.09H820.166ZM220.48 399.23H183.08V387.67H274.37V399.23H237.14V498H220.48V399.23ZM291.703 415.72H306.153V429.15C306.153 426.543 307.287 424.107 309.553 421.84C311.82 419.46 314.71 417.59 318.223 416.23C321.737 414.757 325.193 414.02 328.593 414.02H336.073V427.11H327.573C320.32 427.11 315.05 428.073 311.763 430C308.59 431.813 307.003 435.157 307.003 440.03V498H291.703V415.72ZM376.633 499.7C368.813 499.7 362.75 498.963 358.443 497.49C354.25 496.017 351.19 493.41 349.263 489.67C347.45 485.93 346.543 480.547 346.543 473.52C346.543 467.287 347.393 462.47 349.093 459.07C350.906 455.557 353.91 453.063 358.103 451.59C362.41 450.117 368.473 449.38 376.293 449.38H400.943V436.29C400.943 433.23 400.32 430.907 399.073 429.32C397.94 427.62 395.956 426.43 393.123 425.75C390.403 425.07 386.38 424.73 381.053 424.73C372.553 424.73 363.146 425.41 352.833 426.77V415.55C364.053 414.53 374.196 414.02 383.263 414.02C392.783 414.02 399.81 414.757 404.343 416.23C408.876 417.59 411.993 420.027 413.693 423.54C415.393 427.053 416.243 432.493 416.243 439.86V498H401.453V490.18C400.206 496.527 391.933 499.7 376.633 499.7ZM379.183 489.67C384.736 489.67 389.44 489.273 393.293 488.48C398.393 487.46 400.943 485.08 400.943 481.34V458.9H377.313C372.44 458.9 368.926 459.297 366.773 460.09C364.62 460.77 363.203 462.13 362.523 464.17C361.843 466.21 361.503 469.497 361.503 474.03C361.503 478.11 361.9 481.283 362.693 483.55C363.486 485.703 364.903 487.29 366.943 488.31C368.983 489.217 372.043 489.67 376.123 489.67H379.183ZM475.928 499.7C470.261 499.7 466.124 499.587 463.518 499.36C461.024 499.133 458.134 498.567 454.848 497.66C451.334 496.753 448.614 495.393 446.688 493.58C444.761 491.767 443.118 489.103 441.758 485.59C440.398 482.19 439.718 477.94 439.718 472.84V442.58C439.718 433.4 441.474 426.827 444.988 422.86C446.914 420.593 448.841 418.893 450.768 417.76C452.808 416.513 455.414 415.663 458.588 415.21C461.761 414.757 464.594 414.473 467.088 414.36C469.581 414.133 473.094 414.02 477.628 414.02C485.448 414.02 493.268 414.87 501.088 416.57V427.79C492.021 425.523 483.578 424.39 475.758 424.39C469.864 424.39 465.501 424.843 462.668 425.75C459.948 426.543 458.021 428.073 456.888 430.34C455.868 432.493 455.358 435.837 455.358 440.37V474.03C455.358 478.223 455.924 481.34 457.058 483.38C458.304 485.42 460.458 486.893 463.518 487.8C466.691 488.593 471.338 488.99 477.458 488.99C485.731 488.99 494.004 487.913 502.278 485.76V497.32C494.571 498.907 485.788 499.7 475.928 499.7ZM521.635 379H536.935V498H521.635V379ZM538.805 452.95L573.485 415.72H592.185L556.485 452.95L595.415 498H576.375L538.805 452.95ZM643.639 499.7C618.479 499.7 605.899 491.313 605.899 474.54V442.07C605.899 432.097 608.733 424.957 614.399 420.65C620.179 416.23 629.473 414.02 642.279 414.02C654.406 414.02 663.133 416.117 668.459 420.31C673.899 424.503 676.619 431.757 676.619 442.07V460.26H621.369V472.67C621.369 478.337 623.353 482.417 627.319 484.91C631.286 487.403 637.406 488.65 645.679 488.65C653.499 488.65 662.736 487.29 673.389 484.57V496.3C662.963 498.567 653.046 499.7 643.639 499.7ZM661.319 450.23V437.31C661.319 432.323 659.789 428.923 656.729 427.11C653.783 425.183 648.683 424.22 641.429 424.22C634.403 424.22 629.303 425.183 626.129 427.11C622.956 428.923 621.369 432.323 621.369 437.31V450.23H661.319ZM699.936 415.72H714.386V429.15C714.386 426.543 715.519 424.107 717.786 421.84C720.052 419.46 722.942 417.59 726.456 416.23C729.969 414.757 733.426 414.02 736.826 414.02H744.306V427.11H735.806C728.552 427.11 723.282 428.073 719.996 430C716.822 431.813 715.236 435.157 715.236 440.03V498H699.936V415.72Z" fill="black"/>
<g filter="url(#filter3_d)">
<path d="M1480.72 511.366L1471.6 513.764L1473.78 523.415L1482.13 520.925L1484.05 533.409L1495.51 530.021L1492.91 513.635L1488.49 496.871L1478.2 499.764L1480.72 511.366Z" fill="#660002"/>
<path d="M1370.74 344.953L1365.91 350.763L1372.47 355.372L1376.74 349.878L1384.63 356.275L1390.49 348.755L1380.09 340.397L1368.26 332.698L1362.91 339.363L1370.74 344.953Z" fill="#660002"/>
<path d="M1225.06 765.273L1226.94 751.951L1212.92 749.938L1211.6 762.286L1193.97 758.488L1192.11 775.415L1215.29 780.297L1239.99 782.952L1241.85 767.827L1225.06 765.273Z" fill="#660002"/>
<path d="M1240.97 308.278L1239.22 319.052L1250.6 320.774L1251.88 310.784L1266.17 313.976L1267.96 300.282L1249.17 296.177L1229.12 293.865L1227.35 306.099L1240.97 308.278Z" fill="#660002"/>
<path d="M1269.97 751.271L1270.08 740.707L1258.9 742.348L1259.12 752.046L1244.92 753.146L1245.19 766.45L1263.85 764.917L1283.46 761.348L1283.38 749.414L1269.97 751.271Z" fill="#660002"/>
<ellipse cx="1242.41" cy="534.5" rx="236" ry="222.5" fill="url(#paint3_linear)"/>
<path d="M1100.94 343.015L1108.11 354.398L1120.11 346.88L1113.15 336.596L1129.06 328.108L1119.55 313.984L1098.7 325.233L1078.13 339.159L1086.47 351.912L1100.94 343.015Z" fill="#660002"/>
<path d="M1186.23 313.168L1188.59 326.413L1202.54 323.966L1199.96 311.817L1217.9 309.944L1214.4 293.277L1190.85 295.849L1166.55 301.008L1169.48 315.963L1186.23 313.168Z" fill="#660002"/>
<path d="M1204.29 715.962L1206.24 701.591L1191.68 697.701L1190.3 711.072L1171.98 704.792L1170.04 723.115L1194.13 731.248L1219.79 737.125L1221.73 720.778L1204.29 715.962Z" fill="#660002"/>
<path d="M1105.69 644.951L1113.45 637.473L1104.63 630.137L1097.73 637.248L1087.25 627.232L1077.77 636.962L1091.6 650.061L1107.57 662.432L1116.19 653.828L1105.69 644.951Z" fill="#660002"/>
<path d="M1096.42 583.164L1108.35 576.697L1100.21 564.774L1089.44 571.085L1080.21 555.337L1065.41 563.957L1077.64 584.597L1092.7 605.077L1106.06 597.533L1096.42 583.164Z" fill="#660002"/>
<path d="M1264.19 349.397L1260.59 355.438L1254.51 351.106L1258 345.658L1249.94 340.718L1254.72 333.235L1265.28 339.776L1275.7 347.766L1271.52 354.529L1264.19 349.397Z" fill="#660002"/>
<path d="M1097.02 483.337L1109.15 489.354L1113.42 475.496L1102.1 470.346L1108.66 453.302L1093.14 446.2L1084.63 468.646L1077.94 493.337L1091.77 499.896L1097.02 483.337Z" fill="#660002"/>
<path d="M1325.2 320.331L1321.16 333.162L1334.65 337.454L1338 325.492L1354.76 332.14L1359.38 315.749L1337.32 307.12L1313.39 300.437L1309.06 315.048L1325.2 320.331Z" fill="#660002"/>
<path d="M1413.75 369.45L1404.39 379.107L1414.53 388.992L1422.88 379.797L1434.88 393.253L1446.36 380.672L1430.5 363.069L1412.11 346.372L1401.69 357.492L1413.75 369.45Z" fill="#660002"/>
<path d="M1466.84 443.847L1455.03 450.287L1461.77 462.737L1472.48 456.437L1479.94 472.853L1494.64 464.249L1484.73 442.731L1472.13 421.324L1458.88 428.846L1466.84 443.847Z" fill="#660002"/>
<path d="M1486 571.222L1472.76 568.838L1470.21 582.767L1482.5 584.564L1478.03 602.037L1494.88 604.541L1500.64 581.562L1504.23 556.984L1489.19 554.54L1486 571.222Z" fill="#660002"/>
<path d="M1439.08 663.239L1428.35 655.114L1419.77 666.377L1429.91 673.548L1418.01 687.099L1431.89 696.964L1447.44 679.09L1461.78 658.81L1449.48 649.814L1439.08 663.239Z" fill="#660002"/>
<path d="M1429.67 605.449L1419.73 598.572L1411.67 608.257L1421.07 614.322L1409.89 625.985L1422.76 634.329L1437.36 618.946L1450.85 601.514L1439.45 593.903L1429.67 605.449Z" fill="#660002"/>
<path d="M1424.65 450.027L1410.62 451.787L1415.92 466.07L1428.71 464.034L1434.14 482.342L1451.69 479.59L1444.44 455.547L1434.22 430.62L1418.44 432.876L1424.65 450.027Z" fill="#660002"/>
<path d="M1408.01 529.548L1397.56 525.484L1393.28 536.482L1403.04 539.914L1396.62 553.507L1410 558.244L1418.35 540.35L1425.18 520.8L1413.26 516.399L1408.01 529.548Z" fill="#660002"/>
<path d="M1277.97 692.271L1278.08 681.707L1266.9 683.348L1267.12 693.046L1252.92 694.146L1253.19 707.45L1271.85 705.917L1291.46 702.348L1291.38 690.414L1277.97 692.271Z" fill="#660002"/>
<path d="M1364.89 657.392L1350.61 646.106L1337.88 660.258L1351.42 670.262L1333.92 687.188L1352.45 700.946L1375.33 678.611L1396.71 653.057L1380.3 640.535L1364.89 657.392Z" fill="#660002"/>
<path d="M1355.6 583.809L1345.85 576.151L1337.14 585.758L1346.4 592.546L1334.43 604.037L1347.09 613.372L1362.73 598.209L1377.35 580.862L1366.14 572.366L1355.6 583.809Z" fill="#660002"/>
<path d="M1356.58 484.355L1344.72 487.99L1347.63 500.621L1358.49 496.902L1361.09 513.285L1375.98 508.222L1372.47 486.723L1366.58 464.817L1353.2 469.167L1356.58 484.355Z" fill="#660002"/>
<path d="M1149.18 537.346L1160.71 543.409L1166.62 530.973L1155.82 525.739L1164.41 510.506L1149.6 503.294L1138.41 523.36L1128.79 545.561L1141.96 552.198L1149.18 537.346Z" fill="#660002"/>
<path d="M1253.25 456.36L1247.11 467.139L1257.9 474.329L1263.25 464.178L1276.38 474.316L1283.74 460.416L1266.44 447.182L1247.13 435.283L1240.38 447.622L1253.25 456.36Z" fill="#660002"/>
<path d="M1310.92 397.781L1303.94 415.462L1320.59 425.885L1326.55 409.272L1347.04 424.16L1355.26 401.409L1328.27 381.992L1298.63 364.878L1291.03 385.094L1310.92 397.781Z" fill="#660002"/>
<path d="M1175.51 449.998L1180.41 463.225L1194.62 459.412L1189.69 447.319L1208.19 443.708L1201.47 427.114L1177.2 431.969L1152.61 439.522L1158.42 454.433L1175.51 449.998Z" fill="#660002"/>
<path d="M1183.47 637.994L1190.16 625.572L1177.9 617.434L1172.09 629.129L1157.15 617.634L1149.14 633.648L1168.84 648.651L1190.76 662.104L1198.1 647.886L1183.47 637.994Z" fill="#660002"/>
<path d="M1275.55 637.348L1273.7 622.899L1258.5 625.166L1260.65 638.431L1241.17 639.965L1244.07 658.161L1269.66 656.026L1296.19 651.103L1293.81 634.781L1275.55 637.348Z" fill="#660002"/>
<path d="M1355.89 374.758L1348.64 383.502L1358.5 390.437L1364.9 382.169L1376.74 391.793L1385.54 380.475L1369.92 367.901L1352.16 356.317L1344.14 366.348L1355.89 374.758Z" fill="#660002"/>
<path d="M1184.15 367.394L1185.03 379.712L1197.75 375.826L1196.57 364.574L1212.81 360.785L1211.23 345.346L1189.89 350.426L1167.64 358.048L1168.88 371.926L1184.15 367.394Z" fill="#660002"/>
<path d="M1346.58 738.916L1340.06 727.15L1327.65 733.985L1334.03 744.642L1317.67 752.228L1326.38 766.862L1347.83 756.796L1369.14 744.041L1361.52 730.841L1346.58 738.916Z" fill="#660002"/>
<path d="M1103.61 722.676L1110.93 711.388L1099.07 703.653L1092.66 714.291L1078.27 703.413L1069.45 717.978L1088.41 732.178L1109.68 744.999L1117.76 732.073L1103.61 722.676Z" fill="#660002"/>
<path d="M1035.48 664.538L1046.46 656.761L1038.31 645.185L1028.41 652.694L1019.08 637.264L1005.49 647.528L1017.85 667.739L1032.87 687.525L1045.15 678.504L1035.48 664.538Z" fill="#660002"/>
<path d="M1001.21 575.084L1014.23 571.694L1010.7 557.982L998.79 561.505L995.516 543.77L979.175 548.562L983.584 571.839L990.63 595.658L1005.31 591.567L1001.21 575.084Z" fill="#660002"/>
<path d="M1003.07 482.585L1015.92 486.595L1020.17 473.09L1008.2 469.78L1014.8 452.998L998.4 448.421L989.83 470.508L983.211 494.449L997.834 498.742L1003.07 482.585Z" fill="#660002"/>
<path d="M1046.03 540.125L1059.47 540.846L1060.26 526.709L1047.85 526.451L1050.11 508.559L1033.08 508.166L1030.22 531.683L1029.71 556.517L1044.94 557.074L1046.03 540.125Z" fill="#660002"/>
<path d="M1037.47 410.497L1048.04 418.819L1056.83 407.717L1046.83 400.359L1058.98 387.031L1045.28 376.91L1029.4 394.493L1014.69 414.505L1026.82 423.726L1037.47 410.497Z" fill="#660002"/>
<path d="M1100.53 401.442L1111.1 409.764L1119.89 398.662L1109.88 391.304L1122.03 377.976L1108.34 367.855L1092.46 385.438L1077.74 405.45L1089.88 414.671L1100.53 401.442Z" fill="#660002"/>
</g>
<defs>
<filter id="filter0_d" x="1448" y="81.0001" width="432.042" height="432.042" filterUnits="userSpaceOnUse" color-interpolation-filters="sRGB">
<feFlood flood-opacity="0" result="BackgroundImageFix"/>
<feColorMatrix in="SourceAlpha" type="matrix" values="0 0 0 0 0 0 0 0 0 0 0 0 0 0 0 0 0 0 127 0"/>
<feOffset dx="10" dy="10"/>
<feGaussianBlur stdDeviation="5.5"/>
<feColorMatrix type="matrix" values="0 0 0 0 0 0 0 0 0 0 0 0 0 0 0 0 0 0 0.25 0"/>
<feBlend mode="normal" in2="BackgroundImageFix" result="effect1_dropShadow"/>
<feBlend mode="normal" in="SourceGraphic" in2="effect1_dropShadow" result="shape"/>
</filter>
<filter id="filter1_d" x="1283" y="104" width="246.184" height="246.042" filterUnits="userSpaceOnUse" color-interpolation-filters="sRGB">
<feFlood flood-opacity="0" result="BackgroundImageFix"/>
<feColorMatrix in="SourceAlpha" type="matrix" values="0 0 0 0 0 0 0 0 0 0 0 0 0 0 0 0 0 0 127 0"/>
<feOffset dx="10" dy="10"/>
<feGaussianBlur stdDeviation="5.5"/>
<feColorMatrix type="matrix" values="0 0 0 0 0 0 0 0 0 0 0 0 0 0 0 0 0 0 0.25 0"/>
<feBlend mode="normal" in2="BackgroundImageFix" result="effect1_dropShadow"/>
<feBlend mode="normal" in="SourceGraphic" in2="effect1_dropShadow" result="shape"/>
</filter>
<filter id="filter2_d" x="1460" y="-158" width="329.596" height="329" filterUnits="userSpaceOnUse" color-interpolation-filters="sRGB">
<feFlood flood-opacity="0" result="BackgroundImageFix"/>
<feColorMatrix in="SourceAlpha" type="matrix" values="0 0 0 0 0 0 0 0 0 0 0 0 0 0 0 0 0 0 127 0"/>
<feOffset dx="10" dy="10"/>
<feGaussianBlur stdDeviation="5.5"/>
<feColorMatrix type="matrix" values="0 0 0 0 0 0 0 0 0 0 0 0 0 0 0 0 0 0 0.25 0"/>
<feBlend mode="normal" in2="BackgroundImageFix" result="effect1_dropShadow"/>
<feBlend mode="normal" in="SourceGraphic" in2="effect1_dropShadow" result="shape"/>
</filter>
<filter id="filter3_d" x="960" y="272" width="583.93" height="551.785" filterUnits="userSpaceOnUse" color-interpolation-filters="sRGB">
<feFlood flood-opacity="0" result="BackgroundImageFix"/>
<feColorMatrix in="SourceAlpha" type="matrix" values="0 0 0 0 0 0 0 0 0 0 0 0 0 0 0 0 0 0 127 0"/>
<feOffset dx="10" dy="10"/>
<feGaussianBlur stdDeviation="5.5"/>
<feColorMatrix type="matrix" values="0 0 0 0 0 0 0 0 0 0 0 0 0 0 0 0 0 0 0.25 0"/>
<feBlend mode="normal" in2="BackgroundImageFix" result="effect1_dropShadow"/>
<feBlend mode="normal" in="SourceGraphic" in2="effect1_dropShadow" result="shape"/>
</filter>
<linearGradient id="paint0_linear" x1="1537.04" y1="407.319" x2="1781.54" y2="194.244" gradientUnits="userSpaceOnUse">
<stop stop-color="#E00004"/>
<stop offset="0.9999" stop-color="#A30003"/>
<stop offset="1" stop-color="#883955" stop-opacity="0"/>
</linearGradient>
<linearGradient id="paint1_linear" x1="1331.15" y1="281.712" x2="1463.15" y2="162.92" gradientUnits="userSpaceOnUse">
<stop stop-color="#E00004"/>
<stop offset="0.9999" stop-color="#A30003"/>
<stop offset="1" stop-color="#883955" stop-opacity="0"/>
</linearGradient>
<linearGradient id="paint2_linear" x1="1522.9" y1="82.2016" x2="1698.63" y2="-86.8103" gradientUnits="userSpaceOnUse">
<stop stop-color="#E00004"/>
<stop offset="0.9999" stop-color="#A30003"/>
<stop offset="1" stop-color="#883955" stop-opacity="0"/>
</linearGradient>
<linearGradient id="paint3_linear" x1="1017.91" y1="757" x2="1467.41" y2="341.5" gradientUnits="userSpaceOnUse">
<stop stop-color="#E00004"/>
<stop offset="0.9999" stop-color="#A30003"/>
<stop offset="1" stop-color="#883955" stop-opacity="0"/>
</linearGradient>
</defs>
</svg>
